<svg width="190" height="53" viewBox="0 0 190 53" fill="none" xmlns="http://www.w3.org/2000/svg">
<path fill-rule="evenodd" clip-rule="evenodd" d="M26.3043 52.6087C19.328 52.6087 12.6374 49.8374 7.70436 44.9043C2.77134 39.9713 0 33.2807 0 26.3043C0 19.328 2.77134 12.6374 7.70436 7.70437C12.6374 2.77134 19.328 0 26.3043 0L26.3043 26.3043V52.6087ZM42.7768 44.9043C47.7099 49.8374 54.4005 52.6087 61.3768 52.6087L61.3768 26.3043L61.3768 0C54.4005 0 47.7098 2.77134 42.7768 7.70437C37.8438 12.6374 35.0725 19.328 35.0725 26.3043C35.0725 33.2807 37.8438 39.9713 42.7768 44.9043ZM94.6956 52.6087C109.223 52.6087 121 40.8318 121 26.3043C121 11.7769 109.223 0 94.6956 0C80.1682 0 68.3913 11.7769 68.3913 26.3043C68.3913 40.8318 80.1682 52.6087 94.6956 52.6087ZM165.991 4.82835V3.07473H164.238H154.959H153.206V4.82835V34.6846C153.166 37.1592 152.552 38.7015 151.656 39.6294C150.773 40.5431 149.341 41.1441 147.037 41.1441C144.876 41.1441 143.402 40.5726 142.393 39.6268C141.48 38.735 140.838 37.1462 140.838 34.4516V4.82835V3.07473H139.084H129.837H128.083V4.82835V34.729V34.7401L128.083 34.7513C128.15 39.9998 129.871 44.3109 133.38 47.4687C136.863 50.6032 141.482 52.0803 147.037 52.0803C152.678 52.0803 157.34 50.5599 160.808 47.3261C164.308 44.0814 165.991 39.6986 165.991 34.3899V4.82835ZM147.037 42.8977C152.236 42.8977 154.877 40.1645 154.959 34.6982V6.58197V4.82835H156.713H162.484H164.238V6.58197V34.3899C164.238 39.3014 162.697 43.1854 159.614 46.0419C156.552 48.8984 152.36 50.3267 147.037 50.3267C141.797 50.3267 137.635 48.9395 134.553 46.1652C131.47 43.3909 129.898 39.5789 129.837 34.729V6.58197V4.82835H131.59H137.331H139.084V6.58197V34.4516C139.084 37.3903 139.783 39.5378 141.18 40.8941C142.598 42.2298 144.551 42.8977 147.037 42.8977ZM187.652 51.4638H189.405V49.7101V4.82835V3.07473H187.652H178.404H176.65V4.82835V49.7101V51.4638H178.404H187.652ZM187.652 49.7101H185.898H180.158H178.404V47.9565V6.58197V4.82835H180.158H185.898H187.652V6.58197V47.9565V49.7101Z" fill="black"/>
</svg>
