<svg width="80" height="23" viewBox="0 0 80 23" fill="none" xmlns="http://www.w3.org/2000/svg">
  <path fill-rule="evenodd" clip-rule="evenodd" d="M3.76994 18.817C5.53557 20.5827 7.87357 21.6443 10.3478 21.8214V11.5L10.3478 1.1786C7.87356 1.35568 5.53557 2.41736 3.76994 4.18299C1.82934 6.12359 0.73913 8.7556 0.73913 11.5C0.739129 14.2444 1.82934 16.8764 3.76994 18.817ZM10.3478 0.437699C10.5931 0.421321 10.8396 0.413055 11.087 0.413055V1.15219L11.087 11.5V21.8478V22.587C10.8396 22.587 10.5931 22.5787 10.3478 22.5623C7.67731 22.384 5.1516 21.244 3.24729 19.3397C1.16809 17.2605 0 14.4405 0 11.5C0 8.55957 1.16808 5.73956 3.24729 3.66035C5.1516 1.75605 7.67731 0.616023 10.3478 0.437699ZM25.1304 21.8214C22.6562 21.6443 20.3182 20.5827 18.5525 18.817C16.6119 16.8764 15.5217 14.2444 15.5217 11.5C15.5217 8.7556 16.6119 6.12359 18.5525 4.18299C20.3182 2.41736 22.6562 1.35568 25.1304 1.1786L25.1304 11.5V21.8214ZM25.8696 0.413055C25.6222 0.413055 25.3757 0.421321 25.1304 0.437699C22.4599 0.616023 19.9342 1.75605 18.0299 3.66035C15.9507 5.73956 14.7826 8.55957 14.7826 11.5C14.7826 14.4405 15.9507 17.2605 18.0299 19.3397C19.9342 21.244 22.4599 22.384 25.1304 22.5623C25.3757 22.5787 25.6222 22.587 25.8696 22.587V21.8478V11.5L25.8696 1.15219L25.8696 0.413055ZM50.2609 11.5C50.2609 17.215 45.628 21.8478 39.913 21.8478C34.1981 21.8478 29.5652 17.215 29.5652 11.5C29.5652 5.78506 34.1981 1.15219 39.913 1.15219C45.628 1.15219 50.2609 5.78506 50.2609 11.5ZM51 11.5C51 17.6232 46.0362 22.587 39.913 22.587C33.7899 22.587 28.8261 17.6232 28.8261 11.5C28.8261 5.37685 33.7899 0.413055 39.913 0.413055C46.0362 0.413055 51 5.37685 51 11.5ZM69.9633 2.36551V1.62638H69.2242H65.3134H64.5743V2.36551V14.9496C64.5577 15.9926 64.299 16.6426 63.9211 17.0337C63.549 17.4188 62.9455 17.6721 61.9743 17.6721C61.0635 17.6721 60.4422 17.4313 60.0167 17.0326C59.6322 16.6567 59.3614 15.987 59.3614 14.8513V2.36551V1.62638H58.6223H54.7245H53.9854V2.36551L53.9853 14.9683L53.9854 14.9777C54.0136 17.1898 54.7391 19.0069 56.2179 20.3379C57.6859 21.659 59.6329 22.2816 61.9743 22.2816C64.3515 22.2816 66.3167 21.6409 67.7783 20.2781C69.2538 18.9105 69.9633 17.0631 69.9633 14.8253V2.36551ZM61.9743 18.4113C64.1658 18.4113 65.2788 17.2593 65.3134 14.9553V3.10464V2.36551H66.0526H68.485H69.2242V3.10464V14.8253C69.2242 16.8955 68.5745 18.5325 67.2753 19.7365C65.9847 20.9405 64.2177 21.5425 61.9743 21.5425C59.7656 21.5425 58.0116 20.9578 56.7124 19.7885C55.4131 18.6192 54.7505 17.0124 54.7245 14.9683V3.10464V2.36551H55.4636H57.8831H58.6223V3.10464V14.8513C58.6223 16.0899 58.9168 16.9951 59.5058 17.5668C60.1034 18.1298 60.9263 18.4113 61.9743 18.4113ZM79.0928 22.0218H79.8319V21.2826V2.36551V1.62638H79.0928H75.195H74.4559V2.36551V21.2826V22.0218H75.195H79.0928ZM79.0928 21.2826H78.3536H75.9342H75.195V20.5435V3.10464V2.36551H75.9342H78.3536H79.0928V3.10464V20.5435V21.2826Z" fill="black"/>
</svg>
